<?xml version="1.0" standalone="no"?>
<!DOCTYPE svg PUBLIC "-//W3C//DTD SVG 20010904//EN"
 "http://www.w3.org/TR/2001/REC-SVG-20010904/DTD/svg10.dtd">
<svg version="1.0" xmlns="http://www.w3.org/2000/svg"
 width="3000.000000pt" height="3000.000000pt" viewBox="0 0 3000.000000 3000.000000"
 preserveAspectRatio="xMidYMid meet">

<g transform="translate(0.000000,3000.000000) scale(0.100000,-0.100000)"
fill="#000000" stroke="none">
<path d="M14820 29000 l0 -1000 175 0 175 0 0 1000 0 1000 -175 0 -175 0 0
-1000z"/>
<path d="M16480 29928 c-48 -423 -156 -1485 -151 -1489 3 -4 40 -10 82 -14
l77 -7 6 39 c3 21 37 342 76 713 38 371 71 689 74 707 l5 32 -67 6 c-37 4 -75
9 -84 11 -10 3 -18 4 -18 2z"/>
<path d="M13383 29913 c-20 -4 -23 -11 -23 -46 1 -70 146 -1422 154 -1436 10
-15 135 -5 152 13 8 8 -9 203 -67 741 -43 402 -78 731 -78 733 -1 3 -114 0
-138 -5z"/>
<path d="M11878 29673 c-53 -12 -68 -20 -68 -34 0 -29 301 -1433 309 -1442 8
-8 141 19 153 31 7 7 -285 1401 -302 1440 -5 12 -13 22 -17 21 -5 -1 -38 -8
-75 -16z"/>
<path d="M18026 29666 c-17 -67 -306 -1439 -304 -1441 4 -3 148 -35 158 -35 4
0 11 17 15 38 7 38 97 464 251 1187 24 116 46 216 47 224 2 14 -40 29 -126 45
-31 6 -35 4 -41 -18z"/>
<path d="M10365 29268 c-33 -12 -63 -25 -66 -30 -4 -6 13 -69 37 -141 23 -73
126 -388 227 -700 102 -312 187 -571 190 -574 8 -7 144 35 152 47 3 5 -26 105
-64 222 -38 117 -141 434 -229 703 -106 327 -163 491 -173 492 -8 1 -41 -8
-74 -19z"/>
<path d="M19547 29283 c-2 -5 -43 -129 -91 -278 -48 -148 -120 -371 -161 -495
-184 -563 -206 -633 -198 -641 10 -9 123 -49 139 -49 13 0 37 70 244 710 67
206 146 449 176 540 29 90 50 167 46 171 -8 7 -131 49 -143 49 -4 0 -10 -3
-12 -7z"/>
<path d="M8893 28700 c-35 -16 -63 -31 -63 -34 0 -4 550 -1241 590 -1328 16
-34 20 -34 98 -2 39 17 62 33 62 43 0 9 -134 316 -297 684 -208 467 -302 667
-313 667 -8 -1 -43 -14 -77 -30z"/>
<path d="M20715 28058 c-164 -370 -300 -676 -302 -681 -5 -9 126 -69 144 -65
11 2 613 1332 613 1353 0 9 -122 65 -141 65 -11 0 -103 -198 -314 -672z"/>
<path d="M7510 27996 c-79 -45 -145 -87 -147 -93 -3 -9 966 -1696 986 -1716 7
-7 59 18 155 74 81 46 146 87 146 91 0 7 -977 1705 -990 1720 -3 4 -71 -30
-150 -76z"/>
<path d="M21849 27224 c-272 -471 -495 -861 -497 -868 -4 -16 287 -181 299
-169 22 22 989 1708 985 1717 -3 10 -74 52 -252 153 l-40 23 -495 -856z"/>
<path d="M6187 27138 c-31 -23 -57 -47 -57 -54 0 -13 817 -1143 854 -1182 l22
-23 62 45 c34 25 62 49 62 54 0 12 -864 1196 -875 1199 -6 2 -36 -16 -68 -39z"/>
<path d="M23716 27148 c-54 -68 -838 -1153 -843 -1164 -4 -11 109 -104 126
-104 9 1 863 1179 868 1198 3 11 -13 30 -47 55 -70 52 -74 53 -104 15z"/>
<path d="M4964 26146 l-59 -54 26 -29 c15 -15 237 -262 494 -548 257 -286 475
-521 484 -523 9 -1 39 21 69 51 l52 53 -494 549 c-272 302 -499 551 -504 553
-6 2 -36 -22 -68 -52z"/>
<path d="M24466 25648 l-497 -553 55 -53 c31 -29 62 -52 70 -50 7 2 224 237
481 523 257 286 479 533 494 548 l26 29 -58 54 c-32 30 -61 54 -66 54 -4 0
-231 -249 -505 -552z"/>
<path d="M3861 25045 c-29 -31 -51 -61 -49 -69 2 -7 235 -221 518 -476 283
-254 530 -477 548 -494 l34 -31 54 58 c30 32 54 62 54 66 0 7 -1027 937 -1085
983 -22 17 -23 17 -74 -37z"/>
<path d="M25532 24604 c-304 -273 -552 -501 -552 -506 0 -6 24 -35 54 -66 l54
-56 84 75 c45 42 292 264 548 494 256 230 466 424 468 432 2 7 -21 38 -50 69
l-54 56 -552 -498z"/>
<path d="M2866 23819 c-25 -34 -43 -65 -41 -69 8 -12 1186 -865 1199 -868 14
-3 96 102 96 123 0 12 -1182 875 -1198 875 -6 0 -31 -28 -56 -61z"/>
<path d="M26475 23449 c-324 -236 -591 -435 -593 -442 -3 -16 75 -127 90 -127
19 0 1198 863 1198 877 0 19 -80 123 -94 122 -6 0 -276 -193 -601 -430z"/>
<path d="M2011 22504 c-46 -82 -79 -150 -75 -154 20 -20 1709 -990 1719 -987
15 5 176 290 168 297 -16 14 -1713 990 -1720 990 -5 0 -46 -66 -92 -146z"/>
<path d="M27032 22156 c-469 -271 -855 -496 -858 -498 -6 -7 159 -291 172
-295 9 -3 1698 967 1718 987 10 10 -154 300 -169 299 -5 0 -394 -222 -863
-493z"/>
<path d="M1301 21112 c-17 -38 -31 -73 -31 -78 0 -7 1256 -573 1350 -609 23
-8 86 134 68 151 -11 10 -1340 604 -1352 604 -1 0 -17 -31 -35 -68z"/>
<path d="M27995 20885 c-363 -161 -668 -299 -678 -307 -18 -13 -17 -16 15 -83
22 -46 38 -69 48 -67 27 6 1325 585 1338 597 11 10 7 25 -19 83 -17 40 -34 72
-38 72 -3 -1 -303 -133 -666 -295z"/>
<path d="M736 19644 c-14 -43 -23 -81 -18 -84 4 -4 115 -42 247 -84 132 -43
446 -145 699 -227 252 -82 462 -149 466 -149 8 0 50 118 50 142 0 20 15 14
-425 157 -203 66 -505 163 -670 217 -165 53 -305 99 -311 101 -7 3 -22 -28
-38 -73z"/>
<path d="M28512 19486 c-375 -123 -685 -226 -689 -229 -9 -9 26 -134 42 -147
9 -7 136 30 461 136 247 80 559 181 694 225 135 44 249 84 254 89 7 7 6 25 -1
53 -22 81 -31 97 -55 96 -13 0 -330 -101 -706 -223z"/>
<path d="M345 18196 c-9 -29 -34 -151 -31 -153 5 -6 1459 -314 1462 -310 6 6
37 157 33 161 -2 2 -83 20 -179 40 -96 20 -280 59 -407 86 -128 28 -340 73
-470 100 -131 28 -275 59 -321 69 -60 13 -85 15 -87 7z"/>
<path d="M28905 18049 c-385 -83 -704 -154 -709 -159 -9 -9 17 -137 31 -151 6
-6 1265 254 1428 295 29 7 32 33 12 111 -11 42 -17 50 -38 52 -13 1 -339 -66
-724 -148z"/>
<path d="M83 16577 c-5 -45 -8 -84 -7 -85 5 -8 1479 -160 1486 -153 3 3 9 40
13 82 l7 77 -38 6 c-22 3 -343 37 -714 76 -371 38 -689 72 -707 74 l-31 4 -9
-81z"/>
<path d="M29112 16575 c-376 -40 -686 -75 -689 -78 -9 -10 8 -146 20 -155 7
-6 300 22 742 69 402 43 731 78 733 78 4 2 2 87 -4 124 l-7 37 -56 -1 c-31 -1
-363 -34 -739 -74z"/>
<path d="M0 15005 l0 -175 1000 0 1000 0 0 175 0 175 -1000 0 -1000 0 0 -175z"/>
<path d="M27990 15005 l0 -175 1000 0 1000 0 0 175 0 175 -1000 0 -1000 0 0
-175z"/>
<path d="M815 13600 c-396 -43 -721 -79 -722 -79 -6 -2 -3 -89 3 -120 6 -27
11 -31 38 -31 56 0 1434 148 1446 155 7 4 9 27 4 68 -7 63 -18 88 -38 86 -6
-1 -335 -36 -731 -79z"/>
<path d="M28427 13673 c-9 -16 -19 -163 -10 -163 4 -1 339 -36 743 -78 l735
-78 6 36 c4 19 9 56 11 82 5 47 5 48 -26 53 -17 3 -335 37 -706 75 -371 39
-691 73 -711 76 -21 3 -39 2 -42 -3z"/>
<path d="M1048 12127 c-389 -84 -712 -156 -717 -162 -13 -14 17 -145 33 -145
19 0 1429 301 1439 307 10 6 1 90 -13 128 -5 14 -15 25 -22 24 -7 0 -331 -69
-720 -152z"/>
<path d="M28197 12204 c-9 -42 -14 -80 -12 -84 3 -4 22 -11 42 -15 41 -7 618
-129 1186 -251 115 -24 214 -44 221 -44 13 0 51 148 41 158 -5 6 -1429 311
-1451 312 -6 0 -18 -34 -27 -76z"/>
<path d="M1905 10841 c-115 -38 -426 -140 -689 -225 -264 -86 -484 -160 -488
-164 -14 -14 30 -142 49 -142 9 0 174 51 367 114 193 63 503 164 690 224 186
61 342 114 347 119 12 12 -33 138 -51 140 -8 2 -109 -28 -225 -66z"/>
<path d="M27830 10835 c-13 -41 -22 -77 -19 -79 2 -2 180 -61 394 -131 215
-69 467 -151 560 -182 373 -121 443 -143 457 -143 15 0 62 135 53 150 -3 5
-125 47 -273 95 -147 47 -368 119 -492 160 -524 171 -631 205 -643 205 -8 0
-23 -31 -37 -75z"/>
<path d="M1955 9291 c-403 -180 -671 -305 -673 -314 -5 -23 45 -127 61 -127
17 0 1336 585 1349 598 10 10 -45 142 -59 142 -4 0 -309 -135 -678 -299z"/>
<path d="M27329 9525 c-16 -35 -29 -70 -29 -77 0 -13 1324 -608 1352 -608 21
0 80 136 65 148 -14 11 -1340 602 -1351 602 -4 0 -20 -29 -37 -65z"/>
<path d="M2802 8166 c-469 -271 -857 -497 -862 -502 -10 -10 152 -299 168
-299 13 0 1722 989 1722 996 0 9 -156 279 -167 290 -4 4 -392 -214 -861 -485z"/>
<path d="M26327 8638 c-35 -56 -157 -271 -157 -277 0 -7 1710 -996 1722 -996
5 0 47 65 93 145 64 111 81 148 72 156 -7 6 -381 224 -832 484 -451 260 -834
481 -852 492 l-32 19 -14 -23z"/>
<path d="M25916 7074 c-27 -37 -45 -69 -40 -74 20 -19 1197 -870 1203 -870 9
1 91 116 91 128 0 6 -15 22 -32 35 -110 82 -1167 847 -1170 847 -2 0 -26 -30
-52 -66z"/>
<path d="M3422 6700 c-325 -237 -592 -436 -592 -442 0 -14 78 -118 88 -118 16
0 1197 867 1197 879 0 21 -69 111 -85 111 -8 0 -282 -194 -608 -430z"/>
<path d="M4364 5545 c-296 -267 -543 -491 -548 -499 -11 -16 68 -116 91 -116
17 0 1103 977 1103 991 0 16 -82 109 -95 109 -6 0 -254 -218 -551 -485z"/>
<path d="M25026 5975 c-26 -31 -46 -60 -44 -65 5 -15 1092 -990 1104 -990 6 0
33 25 60 56 34 41 45 60 38 70 -17 26 -1087 984 -1099 984 -6 0 -33 -25 -59
-55z"/>
<path d="M5411 4485 c-271 -300 -494 -552 -497 -559 -3 -8 19 -34 51 -62 l57
-48 37 39 c64 70 935 1040 950 1058 13 16 9 23 -40 67 -30 27 -57 49 -60 50
-4 0 -228 -245 -498 -545z"/>
<path d="M24032 4980 c-30 -26 -52 -55 -50 -63 5 -23 971 -1095 987 -1096 21
-1 123 90 117 105 -7 17 -986 1104 -995 1104 -3 -1 -30 -23 -59 -50z"/>
<path d="M6554 3529 l-437 -602 24 -18 c13 -10 41 -31 62 -46 37 -26 38 -26
57 -7 23 24 850 1164 857 1180 5 13 -95 94 -115 94 -6 0 -207 -271 -448 -601z"/>
<path d="M22930 4086 c-30 -24 -54 -49 -52 -57 7 -29 858 -1189 872 -1189 9 0
39 17 68 38 38 27 51 42 49 57 -5 27 -856 1195 -870 1195 -7 -1 -37 -20 -67
-44z"/>
<path d="M8337 3818 c-42 -66 -988 -1710 -985 -1712 26 -18 290 -166 296 -166
6 0 988 1689 1000 1720 1 4 -55 40 -125 80 -70 40 -138 79 -150 87 -20 13 -23
12 -36 -9z"/>
<path d="M21500 3754 c-80 -46 -145 -88 -145 -93 0 -18 989 -1721 999 -1721
19 1 291 166 289 176 -2 14 -974 1697 -987 1711 -8 8 -47 -10 -156 -73z"/>
<path d="M9422 2693 c-30 -58 -592 -1333 -592 -1342 0 -12 128 -76 136 -68 8
8 604 1348 604 1358 0 8 -121 69 -136 69 -2 0 -7 -8 -12 -17z"/>
<path d="M20488 2678 c-38 -17 -68 -35 -68 -40 0 -17 599 -1353 608 -1356 17
-5 142 56 142 70 -1 21 -595 1352 -606 1354 -5 1 -39 -11 -76 -28z"/>
<path d="M10733 2158 c-10 -30 -84 -257 -348 -1071 -53 -164 -95 -304 -92
-310 7 -20 147 -60 147 -42 0 2 90 282 201 622 258 793 251 773 246 787 -5 12
-100 46 -128 46 -8 0 -20 -15 -26 -32z"/>
<path d="M19158 2168 c-32 -11 -58 -26 -58 -33 0 -7 66 -215 146 -461 80 -247
181 -559 225 -694 44 -135 83 -248 87 -252 10 -9 145 35 150 50 2 7 -98 325
-222 707 -124 382 -226 697 -226 700 0 10 -47 3 -102 -17z"/>
<path d="M14820 1010 l0 -1000 175 0 175 0 0 1000 0 1000 -175 0 -175 0 0
-1000z"/>
<path d="M12105 1808 c-2 -7 -20 -89 -40 -183 -20 -93 -58 -275 -85 -402 -28
-128 -73 -340 -100 -470 -28 -131 -57 -268 -65 -305 -8 -37 -15 -73 -15 -81 0
-17 136 -45 149 -31 5 5 31 117 59 249 28 132 96 455 152 718 56 263 100 481
97 483 -6 6 -115 33 -135 34 -7 0 -15 -6 -17 -12z"/>
<path d="M17801 1805 c-29 -7 -57 -17 -62 -22 -10 -10 287 -1431 302 -1447 11
-13 149 13 155 28 3 7 -64 336 -148 731 -172 809 -147 735 -247 710z"/>
<path d="M13496 1544 c-15 -111 -146 -1380 -146 -1410 0 -30 2 -32 46 -38 84
-11 103 -8 108 17 7 29 156 1460 153 1463 -1 1 -36 5 -78 9 l-77 7 -6 -48z"/>
<path d="M16388 1583 c-20 -2 -41 -9 -46 -16 -6 -8 17 -264 68 -742 43 -402
79 -731 79 -732 2 -5 68 -3 115 3 44 6 46 8 46 38 0 55 -148 1434 -154 1445
-7 11 -33 12 -108 4z"/>
</g>
</svg>
