<?xml version="1.0" standalone="no"?>
<!DOCTYPE svg PUBLIC "-//W3C//DTD SVG 20010904//EN"
 "http://www.w3.org/TR/2001/REC-SVG-20010904/DTD/svg10.dtd">
<svg version="1.0" xmlns="http://www.w3.org/2000/svg"
 width="141.000000pt" height="1031.000000pt" viewBox="0 0 141.000000 1031.000000"
 preserveAspectRatio="xMidYMid meet">

<g transform="translate(0.000000,1031.000000) scale(0.100000,-0.100000)"
fill="#000000" stroke="none">
<path d="M531 7431 l-161 -190 0 -2958 -1 -2958 -56 -35 c-76 -48 -182 -164
-225 -247 -63 -119 -83 -201 -83 -338 0 -137 20 -218 83 -340 50 -95 182 -227
277 -277 122 -63 203 -83 340 -83 137 0 218 20 340 83 95 50 227 182 277 277
63 122 83 203 83 340 0 137 -20 218 -83 340 -43 83 -181 227 -254 265 l-48 25
0 2953 0 2953 -156 190 c-86 104 -159 189 -164 189 -5 0 -81 -85 -169 -189z"/>
</g>
</svg>
