<?xml version="1.0" standalone="no"?>
<!DOCTYPE svg PUBLIC "-//W3C//DTD SVG 20010904//EN"
 "http://www.w3.org/TR/2001/REC-SVG-20010904/DTD/svg10.dtd">
<svg version="1.0" xmlns="http://www.w3.org/2000/svg"
 width="141.000000pt" height="1031.000000pt" viewBox="0 0 141.000000 1031.000000"
 preserveAspectRatio="xMidYMid meet">

<g transform="translate(0.000000,1031.000000) scale(0.100000,-0.100000)"
fill="#000000" stroke="none">
<path d="M577 10140 l-127 -161 0 -4307 0 -4307 -78 -40 c-102 -52 -232 -180
-284 -280 -63 -122 -83 -203 -83 -340 0 -137 20 -218 83 -340 50 -95 182 -227
277 -277 122 -63 203 -83 340 -83 98 0 134 4 195 23 128 40 206 88 300 182 94
94 142 172 182 300 33 107 33 283 0 390 -40 128 -88 206 -182 301 -72 73 -101
94 -178 130 l-91 44 -1 4303 0 4303 -106 152 c-59 84 -110 155 -113 160 -4 4
-64 -65 -134 -153z"/>
</g>
</svg>
