<svg version="1.0" xmlns="http://www.w3.org/2000/svg" width="141.000000ptpx" height="1144.000000ptpx" viewBox="0 0 141.000000 1144.000000" preserveAspectRatio="xMidYMid meet" transform="rotate(0) scale(1, 1)">

<g transform="translate(0.000000,1144.000000) scale(0.100000,-0.100000)" fill="#ff0000" stroke="none">
<path d="M610 6420 l0 -5010 -27 -6 c-227 -49 -410 -188 -507 -386 -103 -207&#xA;-102 -419 0 -628 39 -79 62 -110 133 -181 71 -71 102 -94 181 -133 209 -103&#xA;421 -103 630 0 79 39 110 62 181 133 71 71 94 102 133 181 53 109 76 201 76&#xA;315 0 114 -23 206 -76 315 -39 80 -61 109 -133 180 -107 106 -206 163 -332&#xA;193 l-90 22 3 5007 3 5008 -87 0 -88 0 0 -5010z m216 -5274 c208 -55 354 -243&#xA;354 -456 0 -259 -211 -470 -470 -470 -259 0 -470 211 -470 470 0 210 145 399&#xA;349 456 62 17 174 17 237 0z"/>
</g>
</svg>